# xmcd CD database file
#
# Track frame offsets:
#	150
#	20179
#	40386
#	62369
#	76699
#	95799
#	117464
#	134895
#	157467
#	185720
#	202498
#	218088
#
# Disc length: 3117 seconds
#
# Revision: 0
# Processed by: cddbd v1.5PL3 Copyright (c) Steve Scherf et al.
# Submitted via: CDex 1.51
#
DISCID=c30c2b0c
DTITLE=Sojiro - Sojiro Best
DYEAR=2000
DGENRE=New Age
TTITLE0=Autumn Wind
TTITLE1=Cloud
TTITLE2=Crystal Stream
TTITLE3=Dream of Butan
TTITLE4=For Love
TTITLE5=Lago Titicaca
TTITLE6=Mother Land
TTITLE7=Poem
TTITLE8=Samarkand
TTITLE9=Sunlight
TTITLE10=Tao
TTITLE11=The Sunset
EXTD=YEAR: 2000
EXTT0=
EXTT1=
EXTT2=
EXTT3=
EXTT4=
EXTT5=
EXTT6=
EXTT7=
EXTT8=
EXTT9=
EXTT10=
EXTT11=
PLAYORDER=
